HIERARCHY
ROOT pelvis
{
    OFFSET 0.0 56.464820861816406 0.0
    CHANNELS 6 Xposition Yposition Zposition Zrotation Yrotation Xrotation

    JOINT left_hip
    {
        OFFSET -8.257698059082031 -2.6090316772460938 5.060593128204346
        CHANNELS 3 Zrotation Yrotation Xrotation

        JOINT left_knee
        {
            OFFSET -15.292411804199219 -19.670181274414062 28.814220428466797
            CHANNELS 3 Zrotation Yrotation Xrotation

            JOINT left_ankle
            {
                OFFSET 15.512150764465332 -30.335874557495117 -27.147720336914062
                CHANNELS 3 Zrotation Yrotation Xrotation

                JOINT left_foot
                {
                    OFFSET -5.84892463684082 -2.205204963684082 10.980769157409668
                    CHANNELS 3 Zrotation Yrotation Xrotation

                    End Site
                    {
                        OFFSET 0 0 0
                    }
                }
            }
        }
    }

    JOINT right_hip
    {
        OFFSET 7.162100791931152 -4.6716766357421875 2.866680383682251
        CHANNELS 3 Zrotation Yrotation Xrotation

        JOINT right_knee
        {
            OFFSET 26.17706298828125 -17.201480865478516 24.08510398864746
            CHANNELS 3 Zrotation Yrotation Xrotation

            JOINT right_ankle
            {
                OFFSET -2.982858657836914 -34.73192596435547 -19.743410110473633
                CHANNELS 3 Zrotation Yrotation Xrotation

                JOINT right_foot
                {
                    OFFSET 7.301294326782227 -0.5957959294319153 14.237251281738281
                    CHANNELS 3 Zrotation Yrotation Xrotation

                    End Site
                    {
                        OFFSET 0 0 0
                    }
                }
            }
        }
    }

    JOINT spine1
    {
        OFFSET 0.9117291569709778 12.600105285644531 -10.51693344116211
        CHANNELS 3 Zrotation Yrotation Xrotation

        JOINT spine2
        {
            OFFSET 2.4269285202026367 5.3697662353515625 12.69820499420166
            CHANNELS 3 Zrotation Yrotation Xrotation

            JOINT spine3
            {
                OFFSET 0.2555370330810547 4.1256561279296875 3.7894155979156494
                CHANNELS 3 Zrotation Yrotation Xrotation

                JOINT left_collar
                {
                    OFFSET -8.87203598022461 8.361053466796875 0.7742996215820312
                    CHANNELS 3 Zrotation Yrotation Xrotation

                    JOINT left_shoulder
                    {
                        OFFSET -12.478279113769531 0.123504638671875 3.1225452423095703
                        CHANNELS 3 Zrotation Yrotation Xrotation

                        JOINT left_elbow
                        {
                            OFFSET -10.826982498168945 -22.111282348632812 -0.3900566101074219
                            CHANNELS 3 Zrotation Yrotation Xrotation

                            JOINT left_wrist
                            {
                                OFFSET 13.591780662536621 -10.95809555053711 20.644866943359375
                                CHANNELS 3 Zrotation Yrotation Xrotation

                                End Site
                                {
                                    OFFSET 0 0 0
                                }
                            }
                        }
                    }
                }

                JOINT right_collar
                {
                    OFFSET 7.422041893005371 9.68084716796875 1.1243457794189453
                    CHANNELS 3 Zrotation Yrotation Xrotation

                    JOINT right_shoulder
                    {
                        OFFSET 12.365078926086426 1.4269485473632812 1.2096672058105469
                        CHANNELS 3 Zrotation Yrotation Xrotation

                        JOINT right_elbow
                        {
                            OFFSET 6.520437240600586 -22.95618438720703 4.788490295410156
                            CHANNELS 3 Zrotation Yrotation Xrotation

                            JOINT right_wrist
                            {
                                OFFSET -12.17474365234375 -18.731842041015625 14.040667533874512
                                CHANNELS 3 Zrotation Yrotation Xrotation

                                End Site
                                {
                                    OFFSET 0 0 0
                                }
                            }
                        }
                    }
                }

                JOINT neck
                {
                    OFFSET -2.2460601329803467 20.895240783691406 -0.32430410385131836
                    CHANNELS 3 Zrotation Yrotation Xrotation

                    JOINT head
                    {
                        OFFSET 4.680004119873047 13.525062561035156 3.014340877532959
                        CHANNELS 3 Zrotation Yrotation Xrotation

                        End Site
                        {
                            OFFSET 0 0 0
                        }
                    }
                }
            }
        }
    }

}

MOTION
Frames: 18
Frame Time: 0.050000
-0.103704 57.304405 2.627620 0.000000 0.000000 -0.000000 9.494209 2.464750 -2.506529 3.961686 -12.740584 1.942056 10.025528 -0.900303 0.420720 0.000000 0.000000 -0.000000 1.483171 -4.130604 3.596075 3.056058 -1.996007 -3.184251 0.733790 -1.376642 0.405325 0.000000 0.000000 -0.000000 -19.224295 3.340429 -4.003596 6.689819 -7.454492 5.199882 0.000000 0.000000 -0.000000 0.243575 -6.398384 -0.118303 5.931435 0.736181 1.301584 3.131068 -5.975481 4.618578 0.000000 0.000000 -0.000000 -0.121635 -5.690559 -0.740846 5.016995 -1.517946 0.117522 5.961256 1.363421 -2.103762 0.000000 0.000000 -0.000000 -1.797796 0.916403 -1.923254 0.000000 0.000000 -0.000000
-0.129062 57.311749 2.674347 0.000000 0.000000 -0.000000 9.628446 2.460461 -2.583481 4.050014 -12.851825 1.925603 9.708362 -0.968598 0.422216 0.000000 0.000000 -0.000000 1.588417 -4.176688 3.692890 3.107995 -2.156745 -3.321294 1.156719 -1.397401 0.464834 0.000000 0.000000 -0.000000 -19.157899 3.291527 -4.127364 6.563672 -7.434835 5.221001 0.000000 0.000000 -0.000000 0.282543 -6.432548 -0.147428 5.940742 0.683919 1.312934 3.124404 -6.026575 4.586901 0.000000 0.000000 -0.000000 -0.135823 -5.793122 -0.764799 5.199888 -1.450934 0.077490 5.890380 1.223176 -2.289577 0.000000 0.000000 -0.000000 -1.828890 0.925035 -1.980744 0.000000 0.000000 -0.000000
-0.152838 57.324249 2.715078 0.000000 0.000000 -0.000000 9.816650 2.453976 -2.691539 4.173783 -13.004830 1.899257 9.381216 -1.011662 0.404976 0.000000 0.000000 -0.000000 1.658583 -4.176692 3.737713 3.125422 -2.269433 -3.472097 1.628090 -1.459505 0.484548 0.000000 0.000000 -0.000000 -19.042447 3.236113 -4.227036 6.438485 -7.399789 5.225496 0.000000 0.000000 -0.000000 0.310264 -6.466646 -0.168023 5.952496 0.614701 1.277337 3.428891 -6.050860 4.653849 0.000000 0.000000 -0.000000 -0.151453 -5.876382 -0.788029 5.295904 -1.430347 0.000629 5.835561 1.130091 -2.461140 0.000000 0.000000 -0.000000 -1.860991 0.927114 -2.061168 0.000000 0.000000 -0.000000
-0.172933 57.338589 2.750049 0.000000 0.000000 -0.000000 9.905582 2.424122 -2.771387 4.238503 -13.059461 1.847556 8.870925 -0.987247 0.424988 0.000000 0.000000 -0.000000 1.741422 -4.174968 3.789562 3.174414 -2.353422 -3.668636 2.087807 -1.564207 0.463651 0.000000 0.000000 -0.000000 -18.788228 3.161584 -4.262384 6.275802 -7.321419 5.132315 0.000000 0.000000 -0.000000 0.377028 -6.489159 -0.218327 6.008174 0.568118 1.231027 3.706357 -6.147288 4.722554 0.000000 0.000000 -0.000000 -0.149280 -5.918726 -0.790502 5.329628 -1.430478 -0.076456 5.854884 1.090930 -2.611443 0.000000 0.000000 -0.000000 -1.860044 0.901461 -2.137214 0.000000 0.000000 -0.000000
-0.187208 57.324173 2.781447 0.000000 0.000000 -0.000000 9.907134 2.388937 -2.810218 4.263333 -13.026146 1.824608 8.514107 -0.952154 0.454851 0.000000 0.000000 -0.000000 1.850227 -4.137089 3.834705 3.216324 -2.451834 -3.822667 2.412449 -1.704991 0.443530 0.000000 0.000000 -0.000000 -18.662707 3.131750 -4.253087 6.189976 -7.273507 5.067536 0.000000 0.000000 -0.000000 0.435071 -6.528218 -0.261808 6.083703 0.548589 1.206854 3.994866 -6.216693 4.813756 0.000000 0.000000 -0.000000 -0.164474 -5.948900 -0.807709 5.353483 -1.430756 -0.088000 6.027173 1.097915 -2.780353 0.000000 0.000000 -0.000000 -1.840294 0.867051 -2.189065 0.000000 0.000000 -0.000000
-0.199251 57.284416 2.812011 0.000000 0.000000 -0.000000 9.897524 2.352573 -2.844379 4.282772 -13.016434 1.843812 8.225010 -0.916230 0.520759 0.000000 0.000000 -0.000000 1.977835 -4.117842 3.903970 3.278599 -2.559262 -3.913213 2.588711 -1.831180 0.464888 0.000000 0.000000 -0.000000 -18.712365 3.150556 -4.230181 6.256241 -7.300534 5.075877 0.000000 0.000000 -0.000000 0.480460 -6.546663 -0.295952 6.074329 0.528746 1.286003 3.998508 -6.254493 4.872411 0.000000 0.000000 -0.000000 -0.168791 -5.988044 -0.815829 5.409027 -1.428498 -0.051140 6.245788 1.087562 -2.946514 0.000000 0.000000 -0.000000 -1.836092 0.856844 -2.208894 0.000000 0.000000 -0.000000
-0.210944 57.262295 2.843118 0.000000 0.000000 -0.000000 10.010571 2.384133 -2.870567 4.341065 -13.134271 1.863335 8.098244 -0.965589 0.561188 0.000000 0.000000 -0.000000 2.005859 -4.137808 3.934874 3.319299 -2.561036 -3.929171 2.564038 -1.947269 0.479691 0.000000 0.000000 -0.000000 -18.948394 3.221281 -4.191430 6.500809 -7.410894 5.171301 0.000000 0.000000 -0.000000 0.531533 -6.544197 -0.334663 5.971939 0.482444 1.467102 3.809655 -6.213129 4.876810 0.000000 0.000000 -0.000000 -0.185618 -6.016920 -0.834405 5.482465 -1.404636 0.039191 6.592307 1.136118 -3.106490 0.000000 0.000000 -0.000000 -1.822260 0.850396 -2.191196 0.000000 0.000000 -0.000000
-0.224835 57.260723 2.873002 0.000000 0.000000 -0.000000 10.111910 2.420681 -2.885152 4.381754 -13.253650 1.876377 8.152970 -1.045789 0.553963 0.000000 0.000000 -0.000000 2.005336 -4.181814 3.963053 3.356917 -2.541142 -3.929687 2.448527 -2.022578 0.480335 0.000000 0.000000 -0.000000 -19.282103 3.314717 -4.160414 6.806162 -7.561259 5.298112 0.000000 0.000000 -0.000000 0.588948 -6.592130 -0.377518 5.884648 0.421472 1.691206 3.554247 -6.123607 4.816401 0.000000 0.000000 -0.000000 -0.174511 -6.052017 -0.827861 5.595462 -1.365802 0.119989 6.849632 1.135013 -3.241340 0.000000 0.000000 -0.000000 -1.799175 0.849191 -2.132524 0.000000 0.000000 -0.000000
-0.239852 57.273666 2.900092 0.000000 0.000000 -0.000000 10.202727 2.433897 -2.919249 4.419827 -13.358667 1.863952 8.267162 -1.171788 0.474470 0.000000 0.000000 -0.000000 2.002150 -4.178647 3.958957 3.367426 -2.515532 -3.940415 2.260553 -2.064740 0.416523 0.000000 0.000000 -0.000000 -19.594756 3.397877 -4.147344 7.064886 -7.686902 5.444242 0.000000 0.000000 -0.000000 0.654904 -6.631904 -0.426928 5.805000 0.365585 1.907897 3.318784 -6.004919 4.730383 0.000000 0.000000 -0.000000 -0.178850 -6.060832 -0.832796 5.641243 -1.352611 0.217656 7.141186 1.166082 -3.355761 0.000000 0.000000 -0.000000 -1.775870 0.843142 -2.088117 0.000000 0.000000 -0.000000
-0.253467 57.292110 2.921408 0.000000 0.000000 -0.000000 10.293395 2.440133 -2.960716 4.449573 -13.461342 1.817816 8.502551 -1.291381 0.328267 0.000000 0.000000 -0.000000 2.028696 -4.194857 3.986494 3.411521 -2.511201 -4.007050 2.045460 -2.049366 0.306905 0.000000 0.000000 -0.000000 -19.773773 3.443579 -4.147077 7.192324 -7.750686 5.532579 0.000000 0.000000 -0.000000 0.684049 -6.671964 -0.448453 5.789562 0.362233 2.038914 2.946850 -5.956588 4.586818 0.000000 0.000000 -0.000000 -0.199069 -6.084828 -0.853988 5.644060 -1.395564 0.378765 7.616444 1.245712 -3.491798 0.000000 0.000000 -0.000000 -1.757243 0.829015 -2.081014 0.000000 0.000000 -0.000000
-0.264929 57.295765 2.937890 0.000000 0.000000 -0.000000 10.330954 2.412791 -3.009983 4.460965 -13.509065 1.762340 8.667754 -1.376109 0.179916 0.000000 0.000000 -0.000000 2.151744 -4.186432 4.060061 3.476805 -2.624990 -4.166719 1.967554 -2.023495 0.172655 0.000000 0.000000 -0.000000 -20.013011 3.507443 -4.135339 7.311807 -7.839328 5.557340 0.000000 0.000000 -0.000000 0.679715 -6.708173 -0.444685 5.829742 0.412445 2.098884 2.445498 -6.012871 4.434629 0.000000 0.000000 -0.000000 -0.248062 -6.124796 -0.903424 5.604709 -1.481098 0.566589 8.154717 1.397196 -3.569520 0.000000 0.000000 -0.000000 -1.778869 0.841407 -2.101501 0.000000 0.000000 -0.000000
-0.278359 57.325066 2.951873 0.000000 0.000000 -0.000000 10.340497 2.438178 -2.987806 4.407316 -13.553611 1.676557 8.909826 -1.384703 0.067040 0.000000 0.000000 -0.000000 2.239787 -4.220806 4.139008 3.555795 -2.700308 -4.343479 1.904378 -2.023511 0.036538 0.000000 0.000000 -0.000000 -20.198745 3.569060 -4.077459 7.387975 -7.892028 5.534039 0.000000 0.000000 -0.000000 0.717076 -6.733213 -0.472618 5.884038 0.444933 2.143480 2.166932 -6.139453 4.394966 0.000000 0.000000 -0.000000 -0.316779 -6.167281 -0.971342 5.544372 -1.586218 0.801448 8.664641 1.547755 -3.584837 0.000000 0.000000 -0.000000 -1.825420 0.867536 -2.147368 0.000000 0.000000 -0.000000
-0.290498 57.315422 2.967893 0.000000 0.000000 -0.000000 10.269647 2.393611 -2.998071 4.360211 -13.515295 1.642663 8.963264 -1.355934 0.012095 0.000000 0.000000 -0.000000 2.375329 -4.223227 4.227888 3.621432 -2.845027 -4.496385 1.845564 -2.037078 -0.068165 0.000000 0.000000 -0.000000 -20.519588 3.665919 -4.014076 7.485549 -7.963393 5.555709 0.000000 0.000000 -0.000000 0.737619 -6.795881 -0.487304 5.968203 0.468512 2.158371 1.916106 -6.324561 4.377499 0.000000 0.000000 -0.000000 -0.355365 -6.190838 -1.009453 5.436446 -1.713052 0.954952 9.139861 1.761111 -3.549786 0.000000 0.000000 -0.000000 -1.892358 0.916050 -2.180052 0.000000 0.000000 -0.000000
-0.300591 57.317513 2.988960 0.000000 0.000000 -0.000000 10.201991 2.396360 -2.959214 4.294843 -13.490473 1.629516 9.101695 -1.318196 0.006454 0.000000 0.000000 -0.000000 2.442458 -4.260487 4.295446 3.662161 -2.941886 -4.588155 1.704305 -2.021478 -0.149178 0.000000 0.000000 -0.000000 -21.009557 3.812494 -3.918648 7.709944 -8.092811 5.630344 0.000000 0.000000 -0.000000 0.763080 -6.852912 -0.505777 6.067224 0.502511 2.159736 1.620417 -6.592308 4.386837 0.000000 0.000000 -0.000000 -0.433862 -6.173494 -1.080101 5.333368 -1.788119 1.182371 9.559605 1.949241 -3.481150 0.000000 0.000000 -0.000000 -1.939944 0.953666 -2.193754 0.000000 0.000000 -0.000000
-0.310681 57.322971 3.017323 0.000000 0.000000 -0.000000 10.203710 2.410346 -2.945089 4.279253 -13.528467 1.644964 9.245116 -1.298313 0.015732 0.000000 0.000000 -0.000000 2.471366 -4.283440 4.329058 3.669301 -3.008579 -4.628277 1.532250 -1.997327 -0.213841 0.000000 0.000000 -0.000000 -21.480519 3.950147 -3.835855 7.857988 -8.188617 5.706149 0.000000 0.000000 -0.000000 0.803531 -6.919923 -0.535432 6.209604 0.549284 2.138934 1.286345 -6.931857 4.388612 0.000000 0.000000 -0.000000 -0.524554 -6.172282 -1.163725 5.246958 -1.855688 1.393497 9.911826 2.133698 -3.389657 0.000000 0.000000 -0.000000 -1.980372 0.987149 -2.200727 0.000000 0.000000 -0.000000
-0.319006 57.353699 3.053241 0.000000 0.000000 -0.000000 10.354347 2.495663 -2.933518 4.320005 -13.726235 1.677048 9.643295 -1.281049 0.016349 0.000000 0.000000 -0.000000 2.428119 -4.339310 4.337488 3.676125 -2.976768 -4.603313 1.314496 -1.976202 -0.240537 0.000000 0.000000 -0.000000 -21.930523 4.076428 -3.775331 7.998265 -8.279098 5.803394 0.000000 0.000000 -0.000000 0.872373 -6.996965 -0.586378 6.366853 0.625621 2.193271 0.795624 -7.285924 4.377738 0.000000 0.000000 -0.000000 -0.665062 -6.199052 -1.296347 5.212104 -1.893004 1.667174 10.379420 2.346330 -3.347860 0.000000 0.000000 -0.000000 -1.995544 0.997993 -2.208647 0.000000 0.000000 -0.000000
-0.324529 57.394798 3.095385 0.000000 0.000000 -0.000000 10.633579 2.613710 -2.955509 4.416683 -14.068962 1.711910 10.082673 -1.284344 0.009201 0.000000 0.000000 -0.000000 2.371452 -4.400314 4.340534 3.685609 -2.920982 -4.567820 1.144077 -1.985502 -0.243317 0.000000 0.000000 -0.000000 -22.333742 4.177279 -3.772415 8.062084 -8.350871 5.905545 0.000000 0.000000 -0.000000 0.930829 -7.096985 -0.629106 6.543128 0.745852 2.304826 0.045008 -7.655580 4.318722 0.000000 0.000000 -0.000000 -0.830907 -6.278342 -1.458003 5.229988 -1.940586 2.024872 11.009314 2.576318 -3.351334 0.000000 0.000000 -0.000000 -1.996849 1.001957 -2.199990 0.000000 0.000000 -0.000000
-0.328374 57.430107 3.144088 0.000000 0.000000 -0.000000 10.902581 2.757550 -2.945148 4.481211 -14.421544 1.732653 10.511661 -1.243917 0.032756 0.000000 0.000000 -0.000000 2.323394 -4.507166 4.378821 3.739533 -2.849482 -4.516133 1.049369 -2.016155 -0.175508 0.000000 0.000000 -0.000000 -22.586478 4.226620 -3.831860 8.053909 -8.388422 6.009157 0.000000 0.000000 -0.000000 0.964988 -7.237846 -0.652846 6.765601 0.880615 2.387942 -0.525490 -8.005603 4.318510 0.000000 0.000000 -0.000000 -0.952268 -6.373767 -1.580315 5.256945 -2.002706 2.296643 11.402144 2.714589 -3.310854 0.000000 0.000000 -0.000000 -1.974253 0.988597 -2.179619 0.000000 0.000000 -0.000000
